<?xml version="1.0" standalone="no"?>
<!DOCTYPE svg PUBLIC "-//W3C//DTD SVG 20010904//EN"
 "http://www.w3.org/TR/2001/REC-SVG-20010904/DTD/svg10.dtd">
<svg version="1.0" xmlns="http://www.w3.org/2000/svg"
 width="1200.000000pt" height="1200.000000pt" viewBox="0 0 1200.000000 1200.000000"
 preserveAspectRatio="xMidYMid meet">
<metadata>
Created by potrace 1.11, written by Peter Selinger 2001-2013
</metadata>
<g transform="translate(0.000000,1200.000000) scale(0.100000,-0.100000)"
fill="#000000" stroke="none">
<path d="M5249 9616 c-337 -71 -585 -302 -669 -625 -20 -73 -20 -129 -20
-2907 0 -3046 -3 -2890 49 -3038 87 -249 315 -451 581 -517 122 -30 329 -23
445 14 284 93 496 328 555 616 l17 84 77 28 c318 116 545 368 638 707 31 114
31 352 0 475 -30 122 -74 222 -138 318 -30 45 -54 82 -52 83 351 158 589 394
734 726 218 503 112 1080 -272 1480 -97 100 -227 201 -326 251 -32 16 -58 32
-58 34 0 3 14 32 30 65 82 162 104 261 104 455 0 143 -3 170 -27 259 -88 318
-319 572 -621 682 l-60 22 -12 79 c-14 102 -36 168 -91 274 -103 201 -295 355
-523 419 -97 27 -270 35 -361 16z m275 -241 c138 -29 257 -105 343 -220 81
-106 116 -205 138 -385 14 -113 19 -118 130 -145 298 -73 535 -332 585 -638
36 -221 -30 -463 -166 -609 -35 -37 -44 -55 -44 -82 0 -40 24 -61 105 -91 282
-103 513 -311 646 -580 268 -546 67 -1202 -459 -1501 -42 -24 -130 -65 -194
-90 -143 -55 -184 -92 -175 -156 3 -22 16 -52 29 -67 12 -16 49 -60 81 -97
117 -138 178 -309 178 -499 0 -364 -234 -664 -590 -755 -45 -11 -82 -27 -92
-39 -9 -11 -22 -48 -29 -83 -47 -236 -88 -326 -195 -433 -120 -121 -257 -178
-424 -177 -173 1 -298 51 -422 169 -85 81 -147 186 -171 289 -11 49 -13 555
-13 2874 0 2602 1 2820 17 2875 26 96 85 192 168 276 148 151 344 208 554 164z"/>
<path d="M5663 8439 c-223 -37 -419 -221 -524 -494 -70 -180 -68 -274 5 -312
101 -52 403 -121 571 -130 365 -19 568 169 552 512 -7 162 -67 280 -182 357
-91 61 -151 78 -268 77 -56 -1 -125 -5 -154 -10z"/>
<path d="M3890 8920 c-371 -24 -700 -109 -1025 -264 -425 -203 -764 -487
-1057 -886 -311 -424 -479 -921 -495 -1465 l-5 -180 62 -115 c175 -323 290
-424 416 -364 72 34 184 179 284 367 l52 97 311 0 312 0 44 -85 c52 -102 128
-221 185 -288 75 -90 155 -117 232 -81 71 34 191 189 284 367 l45 87 363 0
362 0 0 1405 0 1405 -59 0 c-32 0 -85 2 -117 4 -32 2 -120 0 -194 -4z m-1007
-800 c205 -77 307 -312 227 -523 -95 -251 -423 -335 -632 -163 -182 149 -195
424 -29 595 110 113 280 149 434 91z m-923 -2015 c0 -12 -44 -93 -88 -160 -61
-95 -130 -175 -151 -175 -35 0 -123 111 -204 258 l-46 82 245 0 c134 0 244 -2
244 -5z m1399 -37 c-63 -124 -187 -288 -218 -288 -36 0 -148 146 -215 278
l-26 52 240 0 240 0 -21 -42z"/>
<path d="M7750 6747 c0 -3 14 -48 30 -99 84 -254 110 -444 92 -655 -24 -276
-105 -507 -255 -727 -111 -162 -267 -308 -473 -442 -66 -43 -84 -60 -78 -73
26 -62 85 -250 100 -321 25 -117 25 -343 1 -460 -52 -242 -150 -426 -327 -613
l-82 -87 481 0 481 0 0 145 c0 79 5 167 11 194 38 179 222 219 306 67 27 -50
28 -55 31 -228 l4 -178 529 0 529 0 0 173 c0 94 5 189 10 209 21 75 87 128
160 128 83 0 146 -50 169 -135 6 -22 11 -115 11 -207 l0 -168 271 0 271 0 -5
578 c-6 741 -26 985 -118 1397 -61 276 -102 408 -175 564 -132 281 -383 531
-679 676 -212 104 -550 206 -800 240 -119 17 -495 33 -495 22z"/>
<path d="M10447 6551 c-31 -10 -73 -31 -92 -45 -41 -31 -113 -126 -138 -179
-21 -46 -60 -193 -77 -294 -15 -83 -21 -88 -135 -108 -59 -10 -70 -15 -69 -31
2 -17 86 -209 97 -220 9 -9 201 44 292 81 306 122 485 281 510 455 10 71 -31
230 -59 230 -6 0 -65 -54 -130 -119 -89 -89 -122 -116 -130 -108 -44 48 -48
40 84 172 119 120 124 125 105 140 -56 44 -169 55 -258 26z m4 -162 c23 -43
-20 -86 -67 -68 -25 9 -34 36 -23 67 12 31 73 31 90 1z"/>
<path d="M2345 5966 c-76 -46 -190 -204 -278 -388 l-52 -107 -317 -1 -318 0 0
-34 c0 -55 48 -253 92 -381 55 -157 186 -420 285 -570 337 -513 814 -887 1403
-1101 132 -48 358 -105 492 -124 100 -14 441 -40 531 -40 l77 0 0 1130 0 1130
-55 106 c-98 190 -215 343 -289 378 -77 36 -157 9 -232 -81 -62 -73 -139 -195
-197 -311 l-51 -102 -294 2 -294 3 -59 113 c-102 198 -218 350 -293 386 -49
23 -104 20 -151 -8z m148 -168 c24 -29 57 -73 74 -98 38 -56 123 -209 123
-221 0 -5 -117 -9 -260 -9 -166 0 -260 4 -260 10 0 13 94 183 133 240 47 69
107 130 128 130 9 0 37 -24 62 -52z m1420 -10 c24 -29 57 -73 74 -98 29 -43
123 -208 123 -216 0 -2 -117 -4 -260 -4 -143 0 -260 2 -260 5 0 9 103 190 133
235 47 69 107 130 128 130 9 0 37 -24 62 -52z"/>
</g>
</svg>
